<?xml version="1.0" encoding="utf-8"?>
<!-- Generator: Adobe Illustrator 22.1.0, SVG Export Plug-In . SVG Version: 6.00 Build 0)  -->
<svg version="1.1" id="Слой_1" xmlns="http://www.w3.org/2000/svg" xmlns:xlink="http://www.w3.org/1999/xlink" x="0px" y="0px"
	 width="16px" height="16px" viewBox="0 0 16 16" style="enable-background:new 0 0 16 16;" xml:space="preserve">
<style type="text/css">
	.st0{fill:#2C3E50;}
</style>
<title>help</title>
<path class="st0" d="M7.2,12.8h1.6v-1.6H7.2V12.8 M8,0C3.6,0,0,3.6,0,8s3.6,8,8,8s8-3.6,8-8S12.4,0,8,0 M8,14.4
	c-3.5,0-6.4-2.9-6.4-6.4S4.5,1.6,8,1.6s6.4,2.9,6.4,6.4c0,0,0,0,0,0C14.4,11.5,11.5,14.4,8,14.4 M8,3.2c-1.8,0-3.2,1.4-3.2,3.2h1.6
	c0-0.9,0.7-1.6,1.6-1.6s1.6,0.7,1.6,1.6c0,1.6-2.4,1.4-2.4,4h1.6c0-1.8,2.4-2,2.4-4C11.2,4.6,9.8,3.2,8,3.2L8,3.2z"/>
</svg>
