<svg xmlns="http://www.w3.org/2000/svg" width="201.5" height="48"><path d="M74.1 17.1h-3.9V2h9.4v3.5h-5.5v11.6zm8.2 0V1.9H89c7.3 0 7.3 11.3 0 11.3h-2.8v3.9h-3.9zM89 5.4h-2.8v4.3H89c2.1.1 2.2-4.2 0-4.3zm9.3 11.3l2.4-4.9-5.1-9.3V2h4.3l2.9 5.6h.1l2.6-5.6h4.2v.6l-7.2 14.6h-4.2v-.5zm12.9-10.9c-.1-2.8 2.1-4.1 4.8-4.1 3.3 0 5 2.2 5 4.4 0 1-.4 2.1-1.3 2.8 1.5.8 2.2 2 2.2 3.7 0 2.7-1.9 4.8-5.8 4.8-3.3 0-5.3-1.8-5.3-5.2h3.4c0 1.2.8 1.9 1.9 1.9 2.6 0 2.6-3.4 0-3.4H115V7.5h1c1.9 0 1.9-2.6 0-2.6-.8 0-1.3.3-1.3.9h-3.5zM132 17.1v-5.3h-.8c-5.3 0-7.2-2.7-7.2-8V2h4v1.9c0 2.6.2 4.3 3.2 4.3h.8V2h3.9v15.2H132zm9.2 0h-1.4V2h4v7.4l7.7-7.5h1.4v15.2h-4V9.7l-7.7 7.4zm15.6 0V2h3.9v5.7h.3c3.9 0 3.7-2.9 3.7-5.7h4c0 3.1.1 6-2.9 7.9l4.1 6.7v.6h-4.3l-3.3-5.9c-.5.1-1 .1-1.5.1v5.8c-1.4-.1-2.7-.1-4-.1zm14.4-7.5c0-10.5 15.5-10.5 15.5 0s-15.5 10.5-15.5 0zm11.5 0c0-5.5-7.6-5.5-7.6 0s7.6 5.5 7.6 0zm16.9-.4c1.2.6 1.8 1.8 1.8 3.1 0 2.6-1.6 4.8-4.7 4.8h-7.1V2h6.5c2.6 0 4.7 2 4.7 4.7 0 .8-.4 1.9-1.2 2.5zm-6.2-3.8v2.4h2.4c1.5 0 1.5-2.4 0-2.4h-2.4zm0 5.7v2.6h3.1c1.6 0 1.5-2.6 0-2.6h-3.1zM77 23.6c3.1 0 6.5 1.7 7.1 5.8h-3.8c-.5-1.5-1.7-2.2-3.3-2.2-2.3 0-3.8 1.7-3.8 4.2 0 2.2 1.5 4.2 3.8 4.2 1.6 0 3-.8 3.4-2.4h3.8c-.6 4.3-4 6-7.2 6-3.9 0-7.8-2.6-7.8-7.7.1-5.3 4-7.9 7.8-7.9zm19.7 3.7h-5.6v2.1h5.2v3.4h-5.2v2.7h5.8v3.4h-9.7V23.7h9.5v3.6zm3.5 11.7V23.8h6.7c7.3 0 7.3 11.3 0 11.3h-2.8V39h-3.9zm6.6-11.7H104v4.3h2.8c2.2 0 2.3-4.3 0-4.3zm18.4 3.8c1.2.6 1.8 1.8 1.8 3.1 0 2.6-1.6 4.8-4.7 4.8h-7.1V23.8h6.5c2.6 0 4.7 2 4.7 4.7 0 .9-.4 2-1.2 2.6zm-6.2-3.8v2.4h2.4c1.5 0 1.5-2.4 0-2.4H119zm0 5.6v2.6h3.1c1.6 0 1.5-2.6 0-2.6H119zm12.5 6.1h-1.4V23.8h4v7.4l7.7-7.5h1.4V39h-4v-7.4l-7.7 7.4zm22.4-15.4c3.1 0 6.5 1.7 7.1 5.8h-3.8c-.5-1.5-1.7-2.2-3.3-2.2-2.3 0-3.8 1.7-3.8 4.2 0 2.2 1.5 4.2 3.8 4.2 1.6 0 3-.8 3.4-2.4h3.8c-.6 4.3-4 6-7.2 6-3.9 0-7.8-2.6-7.8-7.7 0-5.3 3.9-7.9 7.8-7.9z"/><path d="M2.1 6v27.8c0 1.6.9 3.1 2.3 3.8 7.9 4.1 24.8 8.7 24.8 8.7s16.9-4.5 24.8-8.7c1.4-.7 2.3-2.2 2.3-3.8V6c0-2.4-1.9-4.3-4.3-4.3H6.4C4 1.7 2.1 3.6 2.1 6z" fill="#ffcb00"/><path d="M0 4.6v30c0 1.7 1 3.3 2.5 4.1C11 43.1 29.2 48 29.2 48s18.2-4.9 26.7-9.3c1.5-.8 2.5-2.4 2.5-4.1v-30C58.4 2 56.3 0 53.8 0H4.6C2.1 0 0 2.1 0 4.6zm53.8 28.9c0 .6-.4 1.2-.9 1.5-7.8 4-23.6 8.2-23.6 8.2S13.5 39 5.7 35c-.6-.3-.9-.9-.9-1.5V6.3c0-1 .8-1.7 1.7-1.7h45.7c1 0 1.7.8 1.7 1.7l-.1 27.2z"/><path d="M14.8 33.6c-1.3-.5-2.9-1.1-4.3-1.8-.3-.1-.5-.5-.5-.8V10.8c0-.8.6-1.4 1.4-1.4h13.5c.5 0 .9.4.9.9v3.2c0 .5-.4.9-.9.9h-9c-.3 0-.5.2-.5.5v18.2c0 .4-.3.6-.6.5zM30.1 9.4h17c.8 0 1.4.6 1.4 1.4v7.5c0 .3-.2.5-.5.5h-4.6c-.3 0-.5-.2-.5-.5V15c0-.3-.2-.5-.5-.5h-7.3c-.3 0-.5.2-.5.5v15.7c0 .3.3.5.6.4 3.4-.8 6.4-1.9 7.4-2.4.1-.1.2-.2.2-.4v-3.9c0-.3.2-.5.5-.5H48c.3 0 .5.2.5.5V31c0 .4-.2.7-.6.9-6 2.6-10.3 3.9-15.6 5.2-1.8.4-3.1-.9-3.1-2.2V10.4c0-.6.4-1 .9-1z"/></svg>