<?xml version="1.0" encoding="utf-8"?><svg xmlns="http://www.w3.org/2000/svg" xmlns:xlink="http://www.w3.org/1999/xlink"><symbol viewBox="0 0 24 24" id="account" xmlns="http://www.w3.org/2000/svg"><path d="M12 4a4 4 0 0 1 4 4 4 4 0 0 1-4 4 4 4 0 0 1-4-4 4 4 0 0 1 4-4m0 10c4.42 0 8 1.79 8 4v2H4v-2c0-2.21 3.58-4 8-4z"/></symbol><symbol viewBox="0 0 24 24" id="back" xmlns="http://www.w3.org/2000/svg"><path d="M20 11H7.8l5.6-5.6L12 4l-8 8 8 8 1.4-1.4L7.8 13H20v-2z"/></symbol><symbol viewBox="0 0 24 24" id="calendar" xmlns="http://www.w3.org/2000/svg"><path d="M19 19H5V8h14m-3-7v2H8V1H6v2H5c-1.11 0-2 .89-2 2v14a2 2 0 0 0 2 2h14a2 2 0 0 0 2-2V5a2 2 0 0 0-2-2h-1V1m-1 11h-5v5h5v-5z"/></symbol><symbol viewBox="0 0 24 24" id="calendar-plus" xmlns="http://www.w3.org/2000/svg"><path d="M19 19V7H5v12h14M16 1h2v2h1a2 2 0 0 1 2 2v14a2 2 0 0 1-2 2H5a2 2 0 0 1-2-2V5c0-1.11.89-2 2-2h1V1h2v2h8V1m-5 8h2v3h3v2h-3v3h-2v-3H8v-2h3V9z"/></symbol><symbol viewBox="0 0 24 24" id="check" xmlns="http://www.w3.org/2000/svg"><path d="M9.4 18.7L3 12.3l1.8-1.9 4.6 4.7 9.8-9.8L21 7.1"/></symbol><symbol viewBox="0 0 24 24" id="close" xmlns="http://www.w3.org/2000/svg"><path d="M19 6.4L17.6 5 12 10.6 6.4 5 5 6.4l5.6 5.6L5 17.6 6.4 19l5.6-5.6 5.6 5.6 1.4-1.4-5.6-5.6L19 6.4z"/></symbol><symbol viewBox="0 0 24 24" id="document" xmlns="http://www.w3.org/2000/svg"><path d="M5 3c-1.11 0-2 .89-2 2v14c0 1.11.89 2 2 2h14c1.11 0 2-.89 2-2V5c0-1.11-.89-2-2-2H5m0 2h14v14H5V5m2 2v2h10V7H7m0 4v2h10v-2H7m0 4v2h7v-2H7z"/></symbol><symbol viewBox="0 0 24 24" id="download" xmlns="http://www.w3.org/2000/svg"><path d="M5.212 20h13.576v-1.939H5.212m10.667-5.334H12.97V4h-1.94v8.727H8.121L12 16.606l3.879-3.879z"/></symbol><symbol viewBox="0 0 16 16" id="help" xmlns="http://www.w3.org/2000/svg"><path d="M7.2 12.8h1.6v-1.6H7.2v1.6M8 0C3.6 0 0 3.6 0 8s3.6 8 8 8 8-3.6 8-8-3.6-8-8-8m0 14.4c-3.5 0-6.4-2.9-6.4-6.4S4.5 1.6 8 1.6s6.4 2.9 6.4 6.4c0 3.5-2.9 6.4-6.4 6.4M8 3.2c-1.8 0-3.2 1.4-3.2 3.2h1.6c0-.9.7-1.6 1.6-1.6s1.6.7 1.6 1.6c0 1.6-2.4 1.4-2.4 4h1.6c0-1.8 2.4-2 2.4-4 0-1.8-1.4-3.2-3.2-3.2z"/></symbol><symbol viewBox="0 0 24 24" id="login" xmlns="http://www.w3.org/2000/svg"><path d="M10.1 15.6l1.4 1.4 5-5-5-5-1.4 1.4 2.6 2.6H3v2h9.7z"/></symbol><symbol viewBox="0 0 24 24" id="magnify" xmlns="http://www.w3.org/2000/svg"><path d="M9.5 3A6.5 6.5 0 0 1 16 9.5c0 1.61-.59 3.09-1.56 4.23l.27.27h.79l5 5-1.5 1.5-5-5v-.79l-.27-.27A6.516 6.516 0 0 1 9.5 16 6.5 6.5 0 0 1 3 9.5 6.5 6.5 0 0 1 9.5 3m0 2C7 5 5 7 5 9.5S7 14 9.5 14 14 12 14 9.5 12 5 9.5 5z"/></symbol><symbol viewBox="0 0 24 24" id="menu-down" xmlns="http://www.w3.org/2000/svg"><path d="M7 10.5l5 5 5-5H7z"/></symbol><symbol viewBox="0 0 24 24" id="menu-up" xmlns="http://www.w3.org/2000/svg"><path d="M17 14.5l-5-5-5 5h10z"/></symbol><symbol viewBox="0 0 24 24" id="pencil" xmlns="http://www.w3.org/2000/svg"><path d="M20.71 7.04c.39-.39.39-1.04 0-1.41l-2.34-2.34c-.37-.39-1.02-.39-1.41 0l-1.84 1.83 3.75 3.75M3 17.25V21h3.75L17.81 9.93l-3.75-3.75L3 17.25z"/></symbol><symbol viewBox="0 0 24 24" id="phone" xmlns="http://www.w3.org/2000/svg"><path d="M6.6 10.8c1.4 2.8 3.8 5.1 6.6 6.6l2.2-2.2c.3-.3.7-.4 1-.3 1.1.4 2.3.6 3.6.6.6 0 1 .4 1 1V20c0 .6-.4 1-1 1-9.4 0-17-7.6-17-17 0-.6.4-1 1-1h3.5c.6 0 1 .4 1 1 0 1.3.2 2.4.6 3.6.1.3 0 .7-.3 1l-2.2 2.2z"/></symbol><symbol viewBox="0 0 24 24" id="plus" xmlns="http://www.w3.org/2000/svg"><path d="M19 13h-6v6h-2v-6H5v-2h6V5h2v6h6v2z"/></symbol><symbol viewBox="0 0 24 24" id="replay" xmlns="http://www.w3.org/2000/svg"><path d="M12 5V1L7 6l5 5V7a6 6 0 0 1 6 6 6 6 0 0 1-6 6 6 6 0 0 1-6-6H4a8 8 0 0 0 8 8 8 8 0 0 0 8-8 8 8 0 0 0-8-8z"/></symbol></svg>